#!OML:ASF I:\Actors\actors\Patient Classification 1\Patient 1\Session 1\Subject1.ASF
:FULLY-SPECIFIED
:DEGREES
1393
root 0.871841 17.5427 9.11038 9.93416 1.56574 -8.21198
lowerback -1.88947 1.22728 6.33515
upperback -6.4088 1.83126 2.01128
thorax -5.48742 0.65236 -1.4974
lowerneck -9.10855 -4.46501 -1.67963
upperneck 46.0649 -10.5234 7.9093
head 20.4043 -3.4537 2.347
rclavicle -3.61415e-014 -3.69739e-014
rhumerus 10.962 58.0425 -93.4537
rradius 142.369
rwrist -35.1913
rhand -8.27246 -73.104
rfingers 7.12502
rthumb 17.6467 102.323
lclavicle -3.61415e-014 -3.69739e-014
lhumerus -54.2743 -62.4903 136.417
lradius 91.7293
lwrist 73.6905
lhand -19.5989 3.01317
lfingers 7.12502
lthumb 6.72705 32.8863
rfemur -3.45289 24.1379 25.1238
rtibia 3.86291
rfoot -14.0802 -24.1128
rtoes 1.76856
lfemur 4.35231 -43.5542 -11.2063
ltibia -3.99612
lfoot -19.3737 49.0104
ltoes 4.13619
1394
root 0.875308 17.5401 9.10736 9.8142 1.64883 -8.62383
lowerback -1.72604 1.25227 6.89241
upperback -6.56997 1.89912 2.03691
thorax -5.74061 0.64781 -1.78576
lowerneck -9.0389 -4.52531 -1.62441
upperneck 46.045 -10.5996 7.8333
head 20.3622 -3.48612 2.28299
rclavicle 5.06901e-015 2.28602e-014
rhumerus 10.9499 58.0257 -93.5108
rradius 142.414
rwrist -35.1307
rhand -8.51461 -73.2569
rfingers 7.12502
rthumb 17.4136 102.497
lclavicle 5.06901e-015 2.28602e-014
lhumerus -54.4971 -62.3521 136.573
lradius 91.7667
lwrist 73.3945
lhand -19.5779 2.98917
lfingers 7.12502
lthumb 6.74734 32.8617
rfemur -3.337 24.0067 25.669
rtibia 3.91576
rfoot -14.0517 -24.0044
rtoes 1.50578
lfemur 4.46873 -43.3141 -10.7642
ltibia -4.08866
lfoot -19.0304 48.8148
ltoes 3.66604
1395
root 0.879525 17.5374 9.10455 9.68703 1.76915 -9.02917
lowerback -1.57205 1.22631 7.4287
upperback -6.70773 1.90172 2.11378
thorax -5.97198 0.612755 -2.00661
lowerneck -9.00324 -4.534 -1.64786
upperneck 46.0329 -10.5808 7.7769
head 20.3339 -3.49192 2.26159
rclavicle -2.9681e-014 -3.26007e-014
rhumerus 11.0019 58.0658 -93.4836
rradius 142.484
rwrist -35.1503
rhand -8.57035 -73.4522
rfingers 7.12502
rthumb 17.36 102.697
lclavicle -2.9681e-014 -3.26007e-014
lhumerus -54.45 -62.1276 136.525
lradius 91.77
lwrist 73.0304
lhand -19.501 2.84255
lfingers 7.12502
lthumb 6.82154 32.7127
rfemur -3.19524 23.7686 26.1988
rtibia 3.91716
rfoot -13.9926 -23.873
rtoes 1.48012
lfemur 4.56666 -43.0512 -10.3288
ltibia -4.14441
lfoot -18.7335 48.5421
ltoes 3.35419
1396
root 0.879423 17.5376 9.10006 9.59294 1.71091 -8.84264
lowerback -1.41317 1.1852 7.21945
upperback -6.84375 1.86584 2.09478
thorax -6.21515 0.594971 -1.91368
lowerneck -9.00289 -4.49605 -1.80142
upperneck 46.0762 -10.5133 7.83707
head 20.3782 -3.48521 2.33608
rclavicle -1.61761e-014 3.83654e-014
rhumerus 11.0665 58.1751 -93.4513
rradius 142.505
rwrist -35.2587
rhand -8.59023 -73.6308
rfingers 7.12502
rthumb 17.3409 102.877
lclavicle -1.61761e-014 3.83654e-014
lhumerus -53.6304 -61.6883 135.748
lradius 91.7878
lwrist 71.8997
lhand -19.112 5.31331
lfingers 7.12502
lthumb 7.19702 35.1709
rfemur -3.1102 23.8134 26
rtibia 3.91946
rfoot -14.0182 -23.8921
rtoes 1.765
lfemur 4.69265 -43.0884 -10.663
ltibia -4.07841
lfoot -18.9136 48.5536
ltoes 3.67026
1397
root 0.884369 17.532 9.08793 9.31087 1.58734 -8.77339
lowerback -0.949159 1.18389 7.21563
upperback -6.94426 1.91463 2.07161
thorax -6.58647 0.60424 -1.94848
lowerneck -9.01496 -4.49477 -1.86681
upperneck 46.1432 -10.4893 7.80211
head 20.429 -3.48998 2.33783
rclavicle 1.75676e-014 -1.37161e-014
rhumerus 11.0574 58.2864 -93.465
rradius 142.487
rwrist -35.2672
rhand -8.79329 -73.6846
rfingers 7.12502
rthumb 17.1454 102.948
lclavicle 1.75676e-014 -1.37161e-014
lhumerus -53.3488 -61.5005 135.513
lradius 91.7992
lwrist 71.33
lhand -19.0081 6.13557
lfingers 7.12502
lthumb 7.29734 35.9897
rfemur -2.86921 23.7906 25.9904
rtibia 3.99785
rfoot -14.0729 -23.7426
rtoes 1.94097
lfemur 5.15042 -43.1723 -11.0952
ltibia -4.08265
lfoot -19.0339 48.6781
ltoes 3.82263
